<svg xmlns="http://www.w3.org/2000/svg" viewBox="0 0 640 420" role="img" aria-labelledby="title desc">
  <title id="title">NANA SECRET product placeholder</title>
  <desc id="desc">A premium textile product placeholder image.</desc>
  <defs>
    <linearGradient id="bg" x1="0" x2="1" y1="0" y2="1">
      <stop offset="0" stop-color="#17140f"/>
      <stop offset="0.48" stop-color="#163f5c"/>
      <stop offset="1" stop-color="#ff8c00"/>
    </linearGradient>
    <linearGradient id="fold" x1="0" x2="1" y1="0" y2="1">
      <stop offset="0" stop-color="#fffaf0"/>
      <stop offset="0.55" stop-color="#ffd400"/>
      <stop offset="1" stop-color="#ff5f00"/>
    </linearGradient>
  </defs>
  <rect width="640" height="420" fill="url(#bg)"/>
  <path d="M96 286c74-76 152-114 234-114 83 0 155 38 214 114v58H96z" fill="#000" opacity=".25"/>
  <path d="M128 120h330c32 0 58 26 58 58v120H128z" fill="url(#fold)"/>
  <path d="M128 120c72 26 136 40 192 40s122-14 196-40v72c-70 24-136 36-196 36s-124-12-192-36z" fill="#fffaf0" opacity=".55"/>
  <path d="M128 298h388v34c0 26-21 47-47 47H175c-26 0-47-21-47-47z" fill="#fffaf0"/>
  <path d="M206 332h228" stroke="#17140f" stroke-width="12" stroke-linecap="round" opacity=".24"/>
  <text x="320" y="78" text-anchor="middle" fill="#ffd400" font-family="Arial, sans-serif" font-size="34" font-weight="700">NANA SECRET</text>
</svg>
